<?xml version="1.0" encoding="utf-8"?>
<!-- Generator: Adobe Illustrator 16.0.1, SVG Export Plug-In . SVG Version: 6.00 Build 0)  -->
<!DOCTYPE svg PUBLIC "-//W3C//DTD SVG 1.1//EN" "http://www.w3.org/Graphics/SVG/1.1/DTD/svg11.dtd">
<svg version="1.1" id="Layer_1" xmlns="http://www.w3.org/2000/svg" xmlns:xlink="http://www.w3.org/1999/xlink" x="0px" y="0px"
	 width="68.493px" height="82.324px" viewBox="0 0 68.493 82.324" enable-background="new 0 0 68.493 82.324" xml:space="preserve">
<g id="Your_Icon">
	<g>
		<g>
			<path d="M6.401,23.526c0-0.109,0.089-0.197,0.197-0.197h9.666c0.107,0,0.195,0.088,0.195,0.197v51.272
				c0,0.109-0.088,0.197-0.195,0.197H6.598c-0.108,0-0.197-0.088-0.197-0.197V23.526z"/>
		</g>
		<g>
			<path d="M21.053,2.671c0-0.107,0.09-0.196,0.197-0.196h9.666c0.107,0,0.197,0.089,0.197,0.196v72.127
				c0,0.109-0.09,0.197-0.197,0.197H21.25c-0.107,0-0.197-0.088-0.197-0.197V2.671z"/>
		</g>
		<g>
			<path d="M51.2,15.645c0-0.108,0.088-0.197,0.195-0.197h10.504c0.105,0,0.193,0.089,0.193,0.197v59.153
				c0,0.109-0.088,0.197-0.193,0.197H51.395c-0.105,0-0.193-0.088-0.193-0.197L51.2,15.645L51.2,15.645z"/>
		</g>
		<g>
			<path d="M46.606,30.042c0-0.107-0.09-0.197-0.197-0.197H35.903c-0.109,0-0.197,0.09-0.197,0.197v44.757
				c0,0.109,0.088,0.197,0.197,0.197h10.506c0.107,0,0.197-0.088,0.197-0.197V30.042z"/>
		</g>
	</g>
	<g>
		<path d="M68.493,82.132c0,0.105-0.086,0.191-0.189,0.191H0.19c-0.104,0-0.19-0.086-0.19-0.191v-2.854
			c0-0.104,0.087-0.189,0.19-0.189h68.113c0.104,0,0.189,0.086,0.189,0.189V82.132z"/>
	</g>
</g>
</svg>
