<?xml version="1.0" encoding="utf-8"?>
<!-- Generator: Adobe Illustrator 16.0.1, SVG Export Plug-In . SVG Version: 6.00 Build 0)  -->
<!DOCTYPE svg PUBLIC "-//W3C//DTD SVG 1.1//EN" "http://www.w3.org/Graphics/SVG/1.1/DTD/svg11.dtd">
<svg version="1.1" id="Layer_1" xmlns="http://www.w3.org/2000/svg" xmlns:xlink="http://www.w3.org/1999/xlink" x="0px" y="0px"
	 width="68.493px" height="82.324px" viewBox="0 0 68.493 82.324" enable-background="new 0 0 68.493 82.324" xml:space="preserve">
<path d="M6.18,55.285c-3.259,0-5.912-2.652-5.912-5.914c0-3.26,2.653-5.91,5.912-5.91c3.26,0,5.912,2.65,5.912,5.91
	C12.092,52.633,9.439,55.285,6.18,55.285z M6.18,45.009c-2.405,0-4.363,1.956-4.363,4.362s1.958,4.364,4.363,4.364
	c2.406,0,4.362-1.958,4.362-4.364C10.542,46.967,8.586,45.009,6.18,45.009z"/>
<path d="M68.494,49.371c0,0.963-1.036,1.744-2.317,1.744H20.064c-1.278,0-2.314-0.781-2.314-1.744l0,0
	c0-0.961,1.036-1.74,2.314-1.74h46.112C67.458,47.631,68.494,48.41,68.494,49.371L68.494,49.371z"/>
<path d="M6.18,36.448c-3.259,0-5.912-2.652-5.912-5.912c0-3.26,2.653-5.912,5.912-5.912c3.26,0,5.912,2.651,5.912,5.912
	C12.092,33.797,9.439,36.448,6.18,36.448z M6.18,26.175c-2.405,0-4.363,1.957-4.363,4.362c0,2.406,1.958,4.363,4.363,4.363
	c2.406,0,4.362-1.957,4.362-4.363C10.542,28.132,8.586,26.175,6.18,26.175z"/>
<path d="M68.494,30.537c0,0.962-1.036,1.743-2.317,1.743H20.064c-1.278,0-2.314-0.781-2.314-1.743l0,0
	c0-0.962,1.036-1.742,2.314-1.742h46.112C67.458,28.794,68.494,29.574,68.494,30.537L68.494,30.537z"/>
<path d="M6.645,17.614c-3.26,0-5.913-2.652-5.913-5.912c0-3.26,2.653-5.912,5.913-5.912s5.912,2.651,5.912,5.912
	C12.556,14.962,9.904,17.614,6.645,17.614z M6.645,7.34c-2.406,0-4.363,1.957-4.363,4.362c0,2.405,1.957,4.363,4.363,4.363
	c2.405,0,4.362-1.957,4.362-4.363S9.049,7.34,6.645,7.34z"/>
<path d="M68.494,11.702c0,0.962-1.027,1.743-2.297,1.743H20.508c-1.268,0-2.294-0.78-2.294-1.743l0,0
	c0-0.962,1.026-1.742,2.294-1.742h45.688C67.466,9.96,68.494,10.74,68.494,11.702L68.494,11.702z"/>
<path d="M68.494,67.433c0,0.962-1.036,1.741-2.317,1.741H20.064c-1.278,0-2.314-0.779-2.314-1.741l0,0
	c0-0.963,1.036-1.742,2.314-1.742h46.112C67.458,65.688,68.494,66.47,68.494,67.433L68.494,67.433z"/>
<circle stroke="#231F20" stroke-miterlimit="10" cx="6.179" cy="67.431" r="5.137"/>
</svg>
