<?xml version="1.0" encoding="utf-8"?>
<!-- Generator: Adobe Illustrator 16.0.1, SVG Export Plug-In . SVG Version: 6.00 Build 0)  -->
<!DOCTYPE svg PUBLIC "-//W3C//DTD SVG 1.1//EN" "http://www.w3.org/Graphics/SVG/1.1/DTD/svg11.dtd">
<svg version="1.1" id="Layer_1" xmlns="http://www.w3.org/2000/svg" xmlns:xlink="http://www.w3.org/1999/xlink" x="0px" y="0px"
	 width="68.493px" height="82.324px" viewBox="0 0 68.493 82.324" enable-background="new 0 0 68.493 82.324" xml:space="preserve">
<g id="Your_Icon">
	<path d="M59.891,5.532H8.599c-4.742,0-8.6,3.857-8.6,8.598v37.403c0,4.742,3.857,8.601,8.6,8.601h16.715L8.77,76.676
		c-1.292,1.291-1.292,3.387,0,4.678c0.646,0.646,1.491,0.97,2.338,0.97c0.847,0,1.692-0.322,2.338-0.97l20.799-20.799l20.797,20.799
		c0.646,0.646,1.494,0.97,2.34,0.97c0.848,0,1.691-0.322,2.338-0.97c1.293-1.291,1.293-3.387,0-4.678L43.177,60.133h16.717
		c4.74,0,8.6-3.854,8.6-8.601V14.13C68.492,9.389,64.634,5.532,59.891,5.532z M61.876,51.533c0,1.094-0.891,1.982-1.982,1.982H8.599
		c-1.095,0-1.985-0.891-1.985-1.982V16.849h55.262V51.533L61.876,51.533z"/>
	<path d="M28.562,3.787h11.365c1.047,0,1.895-0.848,1.895-1.894c0-1.045-0.848-1.894-1.895-1.894H28.562
		c-1.046,0-1.895,0.849-1.895,1.894C26.667,2.939,27.516,3.787,28.562,3.787z"/>
</g>
</svg>
